<mxfile host="65bd71144e">
    <diagram id="x48AzpzQPAeCnHlTUGKE" name="Page-1">
        <mxGraphModel dx="1621" dy="573" grid="1" gridSize="10" guides="1" tooltips="1" connect="1" arrows="1" fold="1" page="1" pageScale="1" pageWidth="850" pageHeight="1100" math="0" shadow="0">
            <root>
                <mxCell id="0"/>
                <mxCell id="1" parent="0"/>
                <mxCell id="48" value="Write issues to pull requests and build systems" style="rounded=0;whiteSpace=wrap;html=1;dashed=1;verticalAlign=bottom;fontSize=14;fontStyle=1" vertex="1" parent="1">
                    <mxGeometry x="340" y="340" width="440" height="280" as="geometry"/>
                </mxCell>
                <mxCell id="47" value="Create Issue Reports" style="rounded=0;whiteSpace=wrap;html=1;dashed=1;verticalAlign=top;fontSize=14;fontStyle=1" vertex="1" parent="1">
                    <mxGeometry x="340" y="110" width="440" height="220" as="geometry"/>
                </mxCell>
                <mxCell id="46" value="Read and create issues" style="rounded=0;whiteSpace=wrap;html=1;dashed=1;verticalAlign=top;fontSize=14;fontStyle=1" parent="1" vertex="1">
                    <mxGeometry x="-110" y="110" width="440" height="510" as="geometry"/>
                </mxCell>
                <mxCell id="5" value="Cake.Issues" style="rounded=1;whiteSpace=wrap;html=1;fillColor=#d5e8d4;strokeColor=#82b366;" parent="1" vertex="1">
                    <mxGeometry x="170" y="160" width="150" height="410" as="geometry"/>
                </mxCell>
                <mxCell id="6" value="Cake.Issues.Reporting" style="rounded=1;whiteSpace=wrap;html=1;fillColor=#d5e8d4;strokeColor=#82b366;" parent="1" vertex="1">
                    <mxGeometry x="350" y="160" width="150" height="150" as="geometry"/>
                </mxCell>
                <mxCell id="7" value="Cake.Issues.PullRequests" style="rounded=1;whiteSpace=wrap;html=1;fillColor=#d5e8d4;strokeColor=#82b366;" parent="1" vertex="1">
                    <mxGeometry x="350" y="360" width="150" height="210" as="geometry"/>
                </mxCell>
                <mxCell id="8" value="Cake.Issues.MsBuild" style="rounded=1;whiteSpace=wrap;html=1;fillColor=#dae8fc;strokeColor=#6c8ebf;" parent="1" vertex="1">
                    <mxGeometry x="-100" y="270" width="240" height="40" as="geometry"/>
                </mxCell>
                <mxCell id="9" value="Cake.Issues.InspectCode" style="rounded=1;whiteSpace=wrap;html=1;fillColor=#dae8fc;strokeColor=#6c8ebf;" parent="1" vertex="1">
                    <mxGeometry x="-100" y="470" width="240" height="40" as="geometry"/>
                </mxCell>
                <mxCell id="10" value="Cake.Issues.EsLint" style="rounded=1;whiteSpace=wrap;html=1;fillColor=#dae8fc;strokeColor=#6c8ebf;" parent="1" vertex="1">
                    <mxGeometry x="-100" y="320" width="240" height="40" as="geometry"/>
                </mxCell>
                <mxCell id="11" value="Cake.Issues.Markdownlint" style="rounded=1;whiteSpace=wrap;html=1;fillColor=#dae8fc;strokeColor=#6c8ebf;" parent="1" vertex="1">
                    <mxGeometry x="-100" y="370" width="240" height="40" as="geometry"/>
                </mxCell>
                <mxCell id="12" value="Cake.Issues.DocFx" style="rounded=1;whiteSpace=wrap;html=1;fillColor=#dae8fc;strokeColor=#6c8ebf;" parent="1" vertex="1">
                    <mxGeometry x="-100" y="420" width="240" height="40" as="geometry"/>
                </mxCell>
                <mxCell id="13" value="Custom Issue Provider" style="rounded=1;whiteSpace=wrap;html=1;fillColor=#dae8fc;strokeColor=#6c8ebf;glass=0;shadow=0;opacity=50;dashed=1;" parent="1" vertex="1">
                    <mxGeometry x="-100" y="530" width="240" height="40" as="geometry"/>
                </mxCell>
                <mxCell id="14" value="Cake.Issues.Reporting.Sarif" style="rounded=1;whiteSpace=wrap;html=1;fillColor=#dae8fc;strokeColor=#6c8ebf;" parent="1" vertex="1">
                    <mxGeometry x="530" y="160" width="240" height="40" as="geometry"/>
                </mxCell>
                <mxCell id="15" value="Custom Report Format" style="rounded=1;whiteSpace=wrap;html=1;fillColor=#dae8fc;strokeColor=#6c8ebf;glass=0;shadow=0;opacity=50;dashed=1;" parent="1" vertex="1">
                    <mxGeometry x="530" y="270" width="240" height="40" as="geometry"/>
                </mxCell>
                <mxCell id="16" value="Cake.Issues.PullRequests.AzureDevOps" style="rounded=1;whiteSpace=wrap;html=1;fillColor=#dae8fc;strokeColor=#6c8ebf;" parent="1" vertex="1">
                    <mxGeometry x="530" y="360" width="240" height="40" as="geometry"/>
                </mxCell>
                <mxCell id="17" value="Cake.Issues.PullRequests.GitHubActions" style="rounded=1;whiteSpace=wrap;html=1;fillColor=#dae8fc;strokeColor=#6c8ebf;" parent="1" vertex="1">
                    <mxGeometry x="530" y="420" width="240" height="40" as="geometry"/>
                </mxCell>
                <mxCell id="18" value="Custom Pull Request System support" style="rounded=1;whiteSpace=wrap;html=1;fillColor=#dae8fc;strokeColor=#6c8ebf;glass=0;shadow=0;opacity=50;dashed=1;" parent="1" vertex="1">
                    <mxGeometry x="530" y="530" width="240" height="40" as="geometry"/>
                </mxCell>
                <mxCell id="25" value="Cake.Issues.Sarif" style="rounded=1;whiteSpace=wrap;html=1;fillColor=#dae8fc;strokeColor=#6c8ebf;" parent="1" vertex="1">
                    <mxGeometry x="-100" y="160" width="240" height="40" as="geometry"/>
                </mxCell>
                <mxCell id="26" value="Cake.Issues.Tap" style="rounded=1;whiteSpace=wrap;html=1;fillColor=#dae8fc;strokeColor=#6c8ebf;" parent="1" vertex="1">
                    <mxGeometry x="-100" y="210" width="240" height="40" as="geometry"/>
                </mxCell>
                <mxCell id="28" value="Cake.Issues.Reporting.Generic" style="rounded=1;whiteSpace=wrap;html=1;fillColor=#dae8fc;strokeColor=#6c8ebf;" parent="1" vertex="1">
                    <mxGeometry x="530" y="210" width="240" height="40" as="geometry"/>
                </mxCell>
                <mxCell id="29" value="Cake.Issues.PullRequests.AppVeyor" style="rounded=1;whiteSpace=wrap;html=1;fillColor=#dae8fc;strokeColor=#6c8ebf;" parent="1" vertex="1">
                    <mxGeometry x="530" y="470" width="240" height="40" as="geometry"/>
                </mxCell>
                <mxCell id="30" value="" style="strokeWidth=1;html=1;shape=mxgraph.flowchart.annotation_2;align=left;labelPosition=right;pointerEvents=1;" parent="1" vertex="1">
                    <mxGeometry x="-160" y="160" width="50" height="90" as="geometry"/>
                </mxCell>
                <mxCell id="31" value="standard formats" style="text;html=1;align=center;verticalAlign=middle;resizable=0;points=[];autosize=1;strokeColor=none;fillColor=none;rotation=270;" parent="1" vertex="1">
                    <mxGeometry x="-220" y="190" width="110" height="30" as="geometry"/>
                </mxCell>
                <mxCell id="32" value="" style="strokeWidth=1;html=1;shape=mxgraph.flowchart.annotation_2;align=left;labelPosition=right;pointerEvents=1;" parent="1" vertex="1">
                    <mxGeometry x="-160" y="270" width="50" height="240" as="geometry"/>
                </mxCell>
                <mxCell id="33" value="tool specific outputs" style="text;html=1;align=center;verticalAlign=middle;resizable=0;points=[];autosize=1;strokeColor=none;fillColor=none;rotation=270;" parent="1" vertex="1">
                    <mxGeometry x="-230" y="375" width="130" height="30" as="geometry"/>
                </mxCell>
                <mxCell id="37" value="" style="strokeWidth=1;html=1;shape=mxgraph.flowchart.annotation_2;align=left;labelPosition=right;pointerEvents=1;rotation=-180;" parent="1" vertex="1">
                    <mxGeometry x="780" y="360" width="50" height="40" as="geometry"/>
                </mxCell>
                <mxCell id="38" value="" style="strokeWidth=1;html=1;shape=mxgraph.flowchart.annotation_2;align=left;labelPosition=right;pointerEvents=1;rotation=-180;" parent="1" vertex="1">
                    <mxGeometry x="780" y="420" width="50" height="90" as="geometry"/>
                </mxCell>
                <mxCell id="39" value="Support for" style="text;html=1;align=center;verticalAlign=middle;resizable=0;points=[];autosize=1;strokeColor=none;fillColor=none;rotation=270;" parent="1" vertex="1">
                    <mxGeometry x="-220" y="375" width="80" height="30" as="geometry"/>
                </mxCell>
                <mxCell id="40" value="Support for" style="text;html=1;align=center;verticalAlign=middle;resizable=0;points=[];autosize=1;strokeColor=none;fillColor=none;rotation=270;" parent="1" vertex="1">
                    <mxGeometry x="-220" y="190" width="80" height="30" as="geometry"/>
                </mxCell>
                <mxCell id="41" value="Pull Request" style="text;html=1;align=center;verticalAlign=middle;resizable=0;points=[];autosize=1;strokeColor=none;fillColor=none;rotation=270;" parent="1" vertex="1">
                    <mxGeometry x="795" y="365" width="90" height="30" as="geometry"/>
                </mxCell>
                <mxCell id="42" value="Systems" style="text;html=1;align=center;verticalAlign=middle;resizable=0;points=[];autosize=1;strokeColor=none;fillColor=none;rotation=270;" parent="1" vertex="1">
                    <mxGeometry x="820" y="365" width="70" height="30" as="geometry"/>
                </mxCell>
                <mxCell id="43" value="Build Server" style="text;html=1;align=center;verticalAlign=middle;resizable=0;points=[];autosize=1;strokeColor=none;fillColor=none;rotation=270;" parent="1" vertex="1">
                    <mxGeometry x="795" y="450" width="90" height="30" as="geometry"/>
                </mxCell>
                <mxCell id="44" value="Integrations" style="text;html=1;align=center;verticalAlign=middle;resizable=0;points=[];autosize=1;strokeColor=none;fillColor=none;rotation=270;" parent="1" vertex="1">
                    <mxGeometry x="810" y="450" width="90" height="30" as="geometry"/>
                </mxCell>
            </root>
        </mxGraphModel>
    </diagram>
</mxfile>